<?xml version="1.0" standalone="no"?>
<!DOCTYPE svg PUBLIC "-//W3C//DTD SVG 20010904//EN"
 "http://www.w3.org/TR/2001/REC-SVG-20010904/DTD/svg10.dtd">
<svg version="1.0" xmlns="http://www.w3.org/2000/svg"
 width="265.000000pt" height="265.000000pt" viewBox="0 0 265.000000 265.000000"
 preserveAspectRatio="xMidYMid meet">
<metadata>
Created by potrace 1.15, written by Peter Selinger 2001-2017
</metadata>
<g transform="translate(0.000000,265.000000) scale(0.100000,-0.100000)"
fill="#000000" stroke="none">
<path d="M84 2624 c3 -8 59 -93 123 -187 65 -94 125 -181 133 -193 8 -13 142
-208 298 -435 182 -265 281 -417 277 -428 -3 -9 -91 -142 -195 -296 -104 -154
-215 -318 -247 -365 -31 -47 -151 -223 -265 -392 -114 -169 -208 -311 -208
-317 0 -8 121 -11 394 -11 l393 0 27 40 c15 22 35 55 45 73 10 18 53 88 96
157 43 69 90 145 105 170 15 25 57 95 95 155 37 61 90 147 118 193 27 45 51
81 53 80 2 -2 29 -49 60 -103 31 -55 64 -113 74 -130 9 -16 75 -133 145 -260
71 -126 147 -261 170 -300 l41 -70 409 -3 c227 -1 413 2 418 7 5 5 -48 93
-125 208 -184 276 -576 860 -687 1022 -50 74 -91 142 -91 151 0 9 26 55 58
101 32 46 98 143 147 214 48 72 116 171 150 220 34 50 122 178 195 285 73 107
166 243 206 302 41 59 74 112 74 117 0 8 -121 11 -389 11 l-390 0 -19 -27
c-10 -16 -32 -53 -49 -83 -35 -64 -59 -106 -100 -176 -17 -27 -41 -70 -55 -95
-27 -48 -58 -101 -87 -151 -10 -18 -49 -86 -86 -151 -37 -66 -71 -115 -75
-110 -4 4 -30 51 -57 103 -28 52 -92 172 -143 265 -51 94 -110 204 -132 245
-22 41 -54 99 -70 128 l-29 52 -406 0 c-365 0 -405 -2 -399 -16z"/>
</g>
</svg>
